<svg width="34" height="34" viewBox="0 0 34 34" fill="none" xmlns="http://www.w3.org/2000/svg">
<path d="M17.0002 0.333252C7.81683 0.333252 0.333496 7.81659 0.333496 16.9999C0.333496 26.1833 7.81683 33.6666 17.0002 33.6666C26.1835 33.6666 33.6668 26.1833 33.6668 16.9999C33.6668 7.81659 26.1835 0.333252 17.0002 0.333252ZM24.2502 22.9499C24.0168 23.3499 23.6002 23.5666 23.1668 23.5666C22.9502 23.5666 22.7335 23.5166 22.5335 23.3833L17.3668 20.2999C16.0835 19.5333 15.1335 17.8499 15.1335 16.3666V9.53325C15.1335 8.84992 15.7002 8.28325 16.3835 8.28325C17.0668 8.28325 17.6335 8.84992 17.6335 9.53325V16.3666C17.6335 16.9666 18.1335 17.8499 18.6502 18.1499L23.8168 21.2333C24.4168 21.5833 24.6168 22.3499 24.2502 22.9499Z" fill="#F6BD60"/>
</svg>
