<svg width="59" height="59" viewBox="0 0 59 59" fill="none" xmlns="http://www.w3.org/2000/svg">
<rect width="59" height="59" rx="6" fill="#F0F4F3"/>
<path d="M30 12.3333C20.8166 12.3333 13.3333 19.8167 13.3333 29C13.3333 38.1833 20.8166 45.6667 30 45.6667C39.1833 45.6667 46.6666 38.1833 46.6666 29C46.6666 19.8167 39.1833 12.3333 30 12.3333ZM37.25 34.95C37.0166 35.35 36.6 35.5667 36.1666 35.5667C35.95 35.5667 35.7333 35.5167 35.5333 35.3833L30.3666 32.3C29.0833 31.5333 28.1333 29.85 28.1333 28.3667V21.5333C28.1333 20.85 28.7 20.2833 29.3833 20.2833C30.0666 20.2833 30.6333 20.85 30.6333 21.5333V28.3667C30.6333 28.9667 31.1333 29.85 31.65 30.15L36.8166 33.2333C37.4166 33.5833 37.6166 34.35 37.25 34.95Z" fill="#84A59D"/>
</svg>
