<svg width="59" height="59" viewBox="0 0 59 59" fill="none" xmlns="http://www.w3.org/2000/svg">
<rect width="59" height="59" rx="6" fill="#FEF7EC"/>
<path d="M29 13.3333C19.8167 13.3333 12.3333 20.8167 12.3333 30C12.3333 39.1833 19.8167 46.6667 29 46.6667C38.1833 46.6667 45.6667 39.1833 45.6667 30C45.6667 20.8167 38.1833 13.3333 29 13.3333ZM36.25 35.95C36.0167 36.35 35.6 36.5667 35.1667 36.5667C34.95 36.5667 34.7333 36.5167 34.5333 36.3833L29.3667 33.3C28.0833 32.5333 27.1333 30.85 27.1333 29.3667V22.5333C27.1333 21.85 27.7 21.2833 28.3833 21.2833C29.0667 21.2833 29.6333 21.85 29.6333 22.5333V29.3667C29.6333 29.9667 30.1333 30.85 30.65 31.15L35.8167 34.2333C36.4167 34.5833 36.6167 35.35 36.25 35.95Z" fill="#F6BD60"/>
</svg>
