<svg width="59" height="59" viewBox="0 0 59 59" fill="none" xmlns="http://www.w3.org/2000/svg">
<rect width="59" height="59" rx="6" fill="#FCF0EE"/>
<path d="M29 11.3333C19.8167 11.3333 12.3333 18.8167 12.3333 28C12.3333 37.1833 19.8167 44.6667 29 44.6667C38.1833 44.6667 45.6667 37.1833 45.6667 28C45.6667 18.8167 38.1833 11.3333 29 11.3333ZM36.25 33.95C36.0167 34.35 35.6 34.5667 35.1667 34.5667C34.95 34.5667 34.7333 34.5167 34.5333 34.3833L29.3667 31.3C28.0833 30.5333 27.1333 28.85 27.1333 27.3667V20.5333C27.1333 19.85 27.7 19.2833 28.3833 19.2833C29.0667 19.2833 29.6333 19.85 29.6333 20.5333V27.3667C29.6333 27.9667 30.1333 28.85 30.65 29.15L35.8167 32.2333C36.4167 32.5833 36.6167 33.35 36.25 33.95Z" fill="#F0B2A8"/>
</svg>
